<svg xmlns="http://www.w3.org/2000/svg" viewBox="0 0 36.45 49.83"><defs><style>.cls-1{fill:#333;}</style></defs><g id="Layer_2" data-name="Layer 2"><g id="Layer_1-2" data-name="Layer 1"><path class="cls-1" d="M18.23,21.13A10.57,10.57,0,1,0,7.66,10.57,10.58,10.58,0,0,0,18.23,21.13ZM18.23,3a7.57,7.57,0,1,1-7.57,7.57A7.58,7.58,0,0,1,18.23,3Z"/><path class="cls-1" d="M18.23,26.16c-.31,0-.61,0-.91,0C8.3,26.83.52,36.93,0,48.65c0,.39,0,.79,0,1.18H3C3,39,10.26,29.16,18.23,29.16c10,0,15.22,10.4,15.22,20.67h3C36.45,38.06,30.19,26.16,18.23,26.16Z"/></g></g></svg>