<svg xmlns="http://www.w3.org/2000/svg" viewBox="0 0 43.63 47.94">
<g id="Layer_2" data-name="Layer 2" fill="#333333">
<g id="Layer_1-2" data-name="Layer 1" fill="#333333">
<path class="cls-1" d="M42.17,20H37.76V16.54h2.45V14.91H31.77l4.86-10.2A2.8,2.8,0,0,0,35.3,1,2.76,2.76,0,0,0,33.17.87,2.8,2.8,0,0,0,31.58,2.3l-6,12.61H4v1.63H5.87V20H1.47A1.47,1.47,0,0,0,0,21.44V26.5A1.47,1.47,0,0,0,1.47,28h4.4V44.19a3.76,3.76,0,0,0,3.76,3.75H34a3.75,3.75,0,0,0,3.75-3.75V28h4.41a1.46,1.46,0,0,0,1.46-1.46V21.44A1.46,1.46,0,0,0,42.17,20ZM5.87,26.71H1.25V21.22H5.87ZM32.71,2.84a1.56,1.56,0,0,1,.88-.79,1.58,1.58,0,0,1,1.19.07,1.5,1.5,0,0,1,.78.86,1.54,1.54,0,0,1-.06,1.19L30.39,14.91H27Zm3.8,41.35a2.5,2.5,0,0,1-2.5,2.5H9.63a2.51,2.51,0,0,1-2.51-2.5V16.54H36.51Zm5.87-17.48H37.76V21.22h4.62Z"/>
<path class="cls-1" d="M13.36,11.57l.14.09-.53.18-.52.63a5,5,0,0,1-2.31-3,4.75,4.75,0,0,1,1-3.68A4.86,4.86,0,0,0,12.28,2.3a2.52,2.52,0,0,0-.59-1.23L12.39,0A3.8,3.8,0,0,1,13.5,2,5.92,5.92,0,0,1,12.18,6.5a3.59,3.59,0,0,0-.81,2.72A4.07,4.07,0,0,0,13.36,11.57Z"/>
<path class="cls-1" d="M20.43,11.57l.14.09-.53.18-.52.63a5,5,0,0,1-2.31-3,4.75,4.75,0,0,1,1-3.68A4.91,4.91,0,0,0,19.35,2.3a2.62,2.62,0,0,0-.59-1.23L19.46,0a3.8,3.8,0,0,1,1.11,2A5.92,5.92,0,0,1,19.25,6.5a3.59,3.59,0,0,0-.81,2.72A4,4,0,0,0,20.43,11.57Z"/>
</g>
</g>
</svg>