<svg xmlns="http://www.w3.org/2000/svg" viewBox="0 0 35.73 49.87">
<g id="Layer_2" data-name="Layer 2">
<g id="Layer_1-2" data-name="Layer 1">
<rect class="cls-1" x="30.51" y="20.87" width="2.25" height="21.51"/>
<rect class="cls-1" x="3" y="20.87" width="2.25" height="21.51"/>
<polygon class="cls-1" points="7.11 6.2 6.37 4.89 3.53 6.48 4.27 7.79 7.11 6.2"/>
<polygon class="cls-1" points="7.11 9.72 6.37 8.41 3.53 10.01 4.27 11.31 7.11 9.72"/>
<polygon class="cls-1" points="6.37 11.94 3.53 13.54 4.27 14.85 7.11 13.25 6.37 11.94"/>
<rect class="cls-1" x="10.57" y="9.11" width="3.26" height="1.5" transform="translate(-3.27 7.24) rotate(-29.32)"/>
<rect class="cls-1" x="10.57" y="12.64" width="3.26" height="1.5" transform="translate(-5 7.69) rotate(-29.32)"/>
<path class="cls-1" d="M35,16.22l-.21-.3V10.75a4.88,4.88,0,0,0-4.87-4.87h-.34V4.58H31.8V1.13H23V4.58h2.23v1.3h-.06a4.87,4.87,0,0,0-4.83,4.3H18.86a4.78,4.78,0,0,0-1.61.28v-3a4.84,4.84,0,0,0-4.49-4.91,4.78,4.78,0,0,0-2.95.9A4.67,4.67,0,0,0,4.56.06,4.81,4.81,0,0,0,.63,4.88V16.22H0V43.3a2.2,2.2,0,0,0,.64,1.55L5,49.23a2.2,2.2,0,0,0,1.55.64H29.06a2.2,2.2,0,0,0,1.55-.64l1.61-1.61,1.26-1.26,1.61-1.61a2.2,2.2,0,0,0,.64-1.55v-27ZM33.48,42.27a2.2,2.2,0,0,1-.64,1.55L29.68,47a2.2,2.2,0,0,1-1.55.64H7.5A2.2,2.2,0,0,1,6,47L2.89,43.92a2.2,2.2,0,0,1-.64-1.55V18.47H33.48ZM23.83,3.82v-2h7v2Zm4.27.76v1.3H26.63V4.58Zm-3,3.55h4.77a2.62,2.62,0,0,1,2.62,2.62v4.69l-.8.78-1.09,1.07-1.16-1.07h0l-1.32-1.9-1.93,1.89V15.05a4.87,4.87,0,0,0-3.68-4.72A2.63,2.63,0,0,1,25.12,8.13Zm-8.87,6.92a2.62,2.62,0,0,1,1-2.06,2.58,2.58,0,0,1,1.61-.56h2.48a2.55,2.55,0,0,1,1.16.28A2.59,2.59,0,0,1,24,15.05l-.51-.73-1.94,1.9-1.09,1.07-.75-1.07-1.32-1.9-1.94,1.9h-.16ZM12.57,4.77A2.43,2.43,0,0,1,15,7.2v4.91a4.81,4.81,0,0,0-1,2.94v.3h0l-.72-1-1.05,1-2.06,1.94h0V7.2A2.43,2.43,0,0,1,12.57,4.77ZM2.88,4.68a2.43,2.43,0,0,1,4.86,0v10l-1.53,1.5L5.12,17.29l-.75-1.07-1.49-1.9Z"/>
</g>
</g>
</svg>